<svg xmlns="http://www.w3.org/2000/svg" width="20" height="20" viewBox="0 0 24 24" fill="none" stroke="#e5e7eb" stroke-width="2" stroke-linecap="round" stroke-linejoin="round"><path d="M2 12h10"/><path d="M9 4v16"/><path d="m3 9 3 3-3 3"/><path d="M14 8V5.87c0-.47.12-.93.34-1.34l2.04-3.65a.98.98 0 0 1 1.72 0l2.04 3.65c.22.41.34.87.34 1.34V8"/><path d="M18 12v5.87c0 .47-.12.93-.34 1.34l-2.04 3.65a.98.98 0 0 1-1.72 0l-2.04-3.65A2.49 2.49 0 0 1 10 17.87V12"/><rect width="8" height="4" x="14" y="8" rx="1"/></svg>
